<mxfile host="65bd71144e">
    <diagram id="EILywZW0Z4QLo58FCy74" name="Page-1">
        <mxGraphModel dx="2516" dy="1425" grid="1" gridSize="10" guides="1" tooltips="1" connect="1" arrows="1" fold="1" page="1" pageScale="1" pageWidth="827" pageHeight="1169" math="0" shadow="0">
            <root>
                <mxCell id="0"/>
                <mxCell id="1" parent="0"/>
                <mxCell id="2" style="edgeStyle=none;html=1;entryX=0.5;entryY=0;entryDx=0;entryDy=0;fontSize=18;fontStyle=0" parent="1" source="3" target="5" edge="1">
                    <mxGeometry relative="1" as="geometry"/>
                </mxCell>
                <mxCell id="3" value="&lt;font style=&quot;font-size: 18px;&quot;&gt;Début&lt;/font&gt;" style="ellipse;whiteSpace=wrap;html=1;fontStyle=0" parent="1" vertex="1">
                    <mxGeometry x="201" y="10" width="186" height="70" as="geometry"/>
                </mxCell>
                <mxCell id="4" style="edgeStyle=none;html=1;fontSize=18;fontStyle=0" parent="1" source="5" target="13" edge="1">
                    <mxGeometry relative="1" as="geometry"/>
                </mxCell>
                <mxCell id="5" value="Champs de recherche" style="shape=parallelogram;perimeter=parallelogramPerimeter;whiteSpace=wrap;html=1;fixedSize=1;fontSize=18;fontStyle=0" parent="1" vertex="1">
                    <mxGeometry x="221" y="130" width="146" height="60" as="geometry"/>
                </mxCell>
                <mxCell id="13" value="recettes = recettes du tableau&lt;br&gt;recettes à afficher=[0]&lt;br&gt;i = 0&lt;br&gt;input = Champs de recherche" style="rounded=0;whiteSpace=wrap;html=1;fontSize=18;fontStyle=0" parent="1" vertex="1">
                    <mxGeometry x="160" y="210" width="267" height="100" as="geometry"/>
                </mxCell>
                <mxCell id="66" style="edgeStyle=none;html=1;entryX=1;entryY=0.5;entryDx=0;entryDy=0;" parent="1" source="21" target="65" edge="1">
                    <mxGeometry relative="1" as="geometry"/>
                </mxCell>
                <mxCell id="68" style="edgeStyle=none;html=1;" parent="1" source="21" target="64" edge="1">
                    <mxGeometry relative="1" as="geometry"/>
                </mxCell>
                <mxCell id="21" value="input = recette.ingredient" style="rhombus;whiteSpace=wrap;html=1;fontSize=18;fontStyle=0" parent="1" vertex="1">
                    <mxGeometry x="220" y="675" width="250" height="150" as="geometry"/>
                </mxCell>
                <mxCell id="85" style="edgeStyle=none;html=1;entryX=0.5;entryY=1;entryDx=0;entryDy=0;" parent="1" source="25" target="65" edge="1">
                    <mxGeometry relative="1" as="geometry">
                        <Array as="points">
                            <mxPoint x="100" y="1115"/>
                        </Array>
                    </mxGeometry>
                </mxCell>
                <mxCell id="25" value="Ajouter la recette à recettes à afficher" style="rounded=0;whiteSpace=wrap;html=1;fontSize=18;fontStyle=0" parent="1" vertex="1">
                    <mxGeometry x="260" y="1070" width="170" height="90" as="geometry"/>
                </mxCell>
                <mxCell id="70" style="edgeStyle=none;html=1;" parent="1" source="33" target="21" edge="1">
                    <mxGeometry relative="1" as="geometry"/>
                </mxCell>
                <mxCell id="104" style="edgeStyle=none;html=1;entryX=0.5;entryY=1;entryDx=0;entryDy=0;" edge="1" parent="1" source="33" target="59">
                    <mxGeometry relative="1" as="geometry">
                        <Array as="points">
                            <mxPoint x="520" y="555"/>
                        </Array>
                    </mxGeometry>
                </mxCell>
                <mxCell id="33" value="i &amp;lt; taille de recettes" style="rhombus;whiteSpace=wrap;html=1;fontSize=18;fontStyle=0" parent="1" vertex="1">
                    <mxGeometry x="273" y="490" width="144" height="130" as="geometry"/>
                </mxCell>
                <mxCell id="53" value="Non" style="text;html=1;strokeColor=none;fillColor=none;align=center;verticalAlign=middle;whiteSpace=wrap;rounded=0;" parent="1" vertex="1">
                    <mxGeometry x="170" y="720" width="60" height="30" as="geometry"/>
                </mxCell>
                <mxCell id="105" style="edgeStyle=none;html=1;entryX=1;entryY=1;entryDx=0;entryDy=0;" edge="1" parent="1" source="59" target="98">
                    <mxGeometry relative="1" as="geometry">
                        <Array as="points">
                            <mxPoint x="520" y="440"/>
                        </Array>
                    </mxGeometry>
                </mxCell>
                <mxCell id="59" value="i = 0" style="rounded=0;whiteSpace=wrap;html=1;fontSize=18;" parent="1" vertex="1">
                    <mxGeometry x="460" y="465" width="120" height="60" as="geometry"/>
                </mxCell>
                <mxCell id="83" style="edgeStyle=none;html=1;" parent="1" source="64" target="25" edge="1">
                    <mxGeometry relative="1" as="geometry"/>
                </mxCell>
                <mxCell id="95" style="edgeStyle=none;html=1;entryX=0.5;entryY=1;entryDx=0;entryDy=0;" parent="1" source="64" target="65" edge="1">
                    <mxGeometry relative="1" as="geometry">
                        <Array as="points">
                            <mxPoint x="100" y="930"/>
                        </Array>
                    </mxGeometry>
                </mxCell>
                <mxCell id="64" value="recette est incluse dans recette à afficher" style="rhombus;whiteSpace=wrap;html=1;fontSize=18;fontStyle=0" parent="1" vertex="1">
                    <mxGeometry x="220" y="850" width="250" height="150" as="geometry"/>
                </mxCell>
                <mxCell id="67" style="edgeStyle=none;html=1;entryX=0;entryY=0.5;entryDx=0;entryDy=0;" parent="1" source="65" target="33" edge="1">
                    <mxGeometry relative="1" as="geometry">
                        <mxPoint x="100.00000000000023" y="640" as="targetPoint"/>
                        <Array as="points">
                            <mxPoint x="100" y="640"/>
                            <mxPoint x="273" y="640"/>
                        </Array>
                    </mxGeometry>
                </mxCell>
                <mxCell id="65" value="i = i+1" style="rounded=0;whiteSpace=wrap;html=1;fontSize=18;" parent="1" vertex="1">
                    <mxGeometry x="40" y="720" width="120" height="60" as="geometry"/>
                </mxCell>
                <mxCell id="69" value="Oui" style="text;html=1;strokeColor=none;fillColor=none;align=center;verticalAlign=middle;whiteSpace=wrap;rounded=0;" parent="1" vertex="1">
                    <mxGeometry x="180" y="1100" width="60" height="30" as="geometry"/>
                </mxCell>
                <mxCell id="80" value="Non" style="text;html=1;strokeColor=none;fillColor=none;align=center;verticalAlign=middle;whiteSpace=wrap;rounded=0;" parent="1" vertex="1">
                    <mxGeometry x="350" y="630" width="60" height="30" as="geometry"/>
                </mxCell>
                <mxCell id="84" value="Non" style="text;html=1;strokeColor=none;fillColor=none;align=center;verticalAlign=middle;whiteSpace=wrap;rounded=0;" parent="1" vertex="1">
                    <mxGeometry x="357" y="1020" width="60" height="30" as="geometry"/>
                </mxCell>
                <mxCell id="94" value="Non" style="text;html=1;strokeColor=none;fillColor=none;align=center;verticalAlign=middle;whiteSpace=wrap;rounded=0;" parent="1" vertex="1">
                    <mxGeometry x="160" y="870" width="60" height="30" as="geometry"/>
                </mxCell>
                <mxCell id="96" value="&lt;font style=&quot;font-size: 18px;&quot;&gt;Fin&lt;/font&gt;" style="ellipse;whiteSpace=wrap;html=1;fontStyle=0" parent="1" vertex="1">
                    <mxGeometry x="601" y="350" width="186" height="80" as="geometry"/>
                </mxCell>
                <mxCell id="100" style="edgeStyle=none;html=1;entryX=0.5;entryY=0;entryDx=0;entryDy=0;exitX=0.5;exitY=1;exitDx=0;exitDy=0;" edge="1" parent="1" source="98" target="33">
                    <mxGeometry relative="1" as="geometry">
                        <mxPoint x="268.7777777777774" y="450" as="sourcePoint"/>
                        <Array as="points">
                            <mxPoint x="294" y="490"/>
                        </Array>
                    </mxGeometry>
                </mxCell>
                <mxCell id="101" style="edgeStyle=none;html=1;" edge="1" parent="1" source="98" target="96">
                    <mxGeometry relative="1" as="geometry"/>
                </mxCell>
                <mxCell id="98" value="Pour item = ingredient&lt;br&gt;Puis item = ustensil&lt;br&gt;Puis item = appareil" style="rounded=0;whiteSpace=wrap;html=1;fontSize=18;fontStyle=0" vertex="1" parent="1">
                    <mxGeometry x="160" y="340" width="267" height="100" as="geometry"/>
                </mxCell>
                <mxCell id="103" value="Oui" style="text;html=1;strokeColor=none;fillColor=none;align=center;verticalAlign=middle;whiteSpace=wrap;rounded=0;" vertex="1" parent="1">
                    <mxGeometry x="460" y="480" width="60" height="30" as="geometry"/>
                </mxCell>
                <mxCell id="106" value="Oui" style="text;html=1;strokeColor=none;fillColor=none;align=center;verticalAlign=middle;whiteSpace=wrap;rounded=0;" vertex="1" parent="1">
                    <mxGeometry x="350" y="820" width="60" height="30" as="geometry"/>
                </mxCell>
                <mxCell id="107" value="Oui" style="text;html=1;strokeColor=none;fillColor=none;align=center;verticalAlign=middle;whiteSpace=wrap;rounded=0;" vertex="1" parent="1">
                    <mxGeometry x="410" y="520" width="60" height="30" as="geometry"/>
                </mxCell>
            </root>
        </mxGraphModel>
    </diagram>
</mxfile>